<?xml version="1.0" encoding="UTF-8"?>
<svg xmlns="http://www.w3.org/2000/svg" viewBox="0 0 1024 1024" width="1024" height="1024">
  <g transform="translate(0,1024) scale(0.1,-0.1)" fill="#000000">
    <!-- Head - perfect circle -->
    <circle cx="6100" cy="8150" r="650"/>
    <!-- Body -->
    <path d="M5510 7353 c-277 -16 -779 -121 -1229 -258 -361 -110 -371 -121 -569
-630 -196 -506 -210 -574 -144 -707 151 -307 583 -199 547 137 -6 61 -6 61
113 301 138 277 132 269 237 283 150 20 406 51 426 51 27 0 28 4 -67 -295
-140 -435 -183 -548 -249 -650 -344 -531 -139 -846 1138 -1745 133 -93 129
-89 147 -190 25 -147 159 -600 301 -1017 67 -197 67 -203 29 -338 -116 -413
94 -539 807 -485 494 38 698 151 632 351 -34 101 -78 125 -280 155 -190 28
-187 27 -371 148 -170 113 -149 76 -204 351 -53 260 -110 621 -149 930 -63
504 -37 466 -825 1174 -159 143 -153 114 -69 293 115 247 188 419 357 847 26
65 31 63 135 -61 354 -422 516 -403 944 114 299 360 389 523 363 657 -65 343
-509 342 -579 -1 -16 -74 -58 -136 -143 -209 -95 -82 -89 -86 -192 111 -226
434 -366 570 -658 644 -81 21 -330 50 -377 44 -9 -1 -41 -3 -71 -5z"/>
    <!-- Back leg -->
    <path d="M4391 4772 c-23 -19 -117 -182 -252 -434 -112 -211 -94 -191 -265
-303 -211 -139 -693 -487 -907 -656 -52 -42 -55 -42 -232 -58 -458 -41 -508
-145 -326 -681 155 -459 235 -591 407 -678 317 -160 531 124 290 385 -57 62
-57 62 -1 235 70 214 26 174 485 441 888 516 966 564 1040 638 46 46 356 432
394 492 24 36 22 40 -144 178 -176 148 -305 273 -381 370 -70 88 -80 95 -108
71z"/>
  </g>
</svg>