<?xml version="1.0" encoding="UTF-8"?>
<svg xmlns="http://www.w3.org/2000/svg" viewBox="0 0 1024 1024" width="1024" height="1024">
  <g transform="translate(0,1024) scale(0.1,-0.1)" fill="#000000">
    <!-- Head - perfect circle -->
    <circle cx="6150" cy="7900" r="620"/>
    <!-- Body - smoothed -->
    <path d="M5260 7129 c-47 -5 -101 -10 -120 -12 -19 -2 -73 -9 -120 -15 -47 -6
-156 -20 -243 -32 -161 -21 -467 -87 -657 -141 -189 -54 -233 -92 -329 -284
-72 -145 -143 -309 -155 -358 -4 -16 -25 -69 -47 -119 -164 -362 -123 -564
127 -628 215 -55 385 116 339 342 -18 86 -18 84 50 208 163 295 156 290 420
305 44 2 105 9 135 15 30 7 93 13 140 15 47 2 110 7 141 10 117 14 92 -171
-70 -517 -17 -37 -31 -71 -31 -75 0 -13 -117 -246 -181 -361 -176 -317 -189
-486 -50 -690 44 -66 182 -205 233 -235 18 -11 62 -39 98 -62 92 -60 306 -158
498 -227 133 -48 132 -66 -8 -160 -91 -61 -159 -114 -308 -243 -38 -33 -95
-80 -127 -105 -32 -25 -79 -64 -106 -87 -55 -48 -97 -71 -191 -107 -317 -119
-326 -232 -44 -525 154 -159 184 -187 316 -289 363 -282 739 -165 460 143 -90
98 -104 139 -80 225 5 19 14 83 19 141 11 135 15 141 114 188 45 21 154 73
242 115 88 42 164 76 168 76 5 0 79 30 165 66 180 77 306 126 410 162 166 56
297 256 264 404 -45 199 -93 243 -637 588 -413 262 -382 214 -267 416 155 275
208 376 247 474 20 52 41 100 45 105 4 6 19 41 35 78 44 106 76 110 136 15
355 -566 637 -569 1052 -13 37 50 82 108 100 130 67 81 218 322 262 418 114
249 -121 498 -367 389 -92 -40 -168 -162 -168 -269 0 -64 -35 -119 -123 -194
-128 -109 -167 -111 -202 -12 -138 396 -247 516 -579 643 -59 22 -115 40 -127
40 -11 0 -89 11 -172 25 -84 13 -179 25 -212 25 -33 0 -139 1 -235 4 -96 2
-213 0 -260 -5z"/>
    <!-- Back leg - smoothed -->
    <path d="M4416 4780 c-11 -4 -51 -69 -100 -166 -259 -506 -296 -563 -461 -709
-126 -112 -271 -258 -332 -336 -84 -107 -153 -205 -184 -264 -18 -33 -60 -105
-94 -160 -34 -55 -68 -110 -74 -123 -15 -28 -84 -63 -181 -92 -288 -86 -358
-282 -186 -519 18 -25 45 -68 59 -96 124 -248 333 -463 480 -495 374 -80 620
143 337 307 -143 82 -147 93 -130 368 15 240 0 209 209 438 299 327 615 599
811 697 85 42 199 159 333 339 55 75 114 151 130 170 69 81 58 115 -55 172
-193 97 -393 268 -471 401 -39 67 -57 80 -91 68z"/>
  </g>
</svg>